<?xml version="1.0" encoding="utf-8"?>
<!-- Generator: Adobe Illustrator 28.0.0, SVG Export Plug-In . SVG Version: 6.00 Build 0)  -->
<svg version="1.1" id="Layer_1" xmlns="http://www.w3.org/2000/svg" xmlns:xlink="http://www.w3.org/1999/xlink" x="0px" y="0px"
	 viewBox="0 0 694.5 335.5" style="enable-background:new 0 0 694.5 335.5;" xml:space="preserve">
<g id="IdufPv_00000067928110469344058480000011862601020530248377_">
	<g>
		<path fill="#ffffff" d="M17.3,182.5c0.1-0.3,0.2-0.6,0.2-0.9c0.4-1.8,1.7-3,3.6-3.2c0.7-0.1,1.4-0.1,2-0.1c18.6,0,37.3,0,55.9,0
			c8,0,16,0.7,23.5,3.7c9.6,3.7,17,9.9,20.3,19.8c4.1,12.1,2.3,23.2-6.7,32.7c-2.2,2.3-4.8,4-7.6,5.3c-0.3,0.2-0.7,0.4-1.2,0.6
			c0.5,0.2,0.9,0.4,1.2,0.5c8.4,3.3,15.4,8.4,19.3,16.7c6.8,14.5,4.9,28.3-5,40.7c-6.5,8.2-15.4,12.6-25.6,14.5
			c-3.7,0.7-7.5,1-11.3,1C64.9,314,44,314,23,314c-3.9,0-4.6-0.4-5.7-4.1C17.3,267.4,17.3,225,17.3,182.5z M46.7,254.4
			c0,12.4,0,24.6,0,36.9c0.3,0,0.6,0.1,0.8,0.1c11.4,0,22.9,0,34.3,0c2.9,0,5.8-0.7,8.5-1.8c12-5.2,15-20.6,5.8-29.4
			c-4.2-4.1-9.5-5.6-15.2-5.6c-10.9,0-21.9,0-32.8,0C47.5,254.4,47.1,254.4,46.7,254.4z M46.6,232.7c0.4,0,0.6,0.1,0.9,0.1
			c10,0,19.9,0.1,29.9-0.1c2.4,0,4.9-0.5,7.3-1.3c12.4-4.2,12.6-19.5,5.6-25.7c-3.8-3.3-8.3-4.5-13.2-4.6c-9.7-0.1-19.4,0-29.1,0
			c-0.4,0-0.8,0-1.3,0.1C46.6,211.7,46.6,222.1,46.6,232.7z"/>
		<path fill="#ffffff" d="M17.3,25.7c0.1-0.2,0.2-0.4,0.2-0.7c0.4-2,1.8-3.4,3.9-3.4c7-0.1,14-0.1,21,0c2.5,0,4.2,1.9,4.2,4.6c0,16.1,0,32.3,0,48.4
			c0,0.5,0,0.9,0,1.5c21,0,41.9,0,62.9,0c0-0.5,0-1.1,0-1.6c0-15.9,0-31.9,0-47.8c0-3.5,1.6-5.2,5.2-5.2c6.3,0,12.6,0,19,0
			c3.5,0,5,1.6,5,5.1c0,41.8,0,83.6,0,125.4c0,3.6-1.5,5.2-5.2,5.2c-6.4,0-12.7,0-19.1,0c-3.2,0-4.9-1.7-4.9-5c0-16.1,0-32.2,0-48.3
			c0-0.5,0-1,0-1.6c-21,0-41.9,0-62.9,0c0,0.5,0,1,0,1.4c0,16.1,0,32.3,0,48.4c0,3.4-1.6,5-5.1,5c-6,0-12.1,0-18.1,0
			c-4.2,0-4.8-0.4-6.1-4.2C17.3,110.6,17.3,68.1,17.3,25.7z"/>
		<path fill="#ffffff" d="M331.3,18.7c0.7,0.1,1.5,0.3,2.2,0.4c8.2,1.6,14,8.8,13.8,17.3c-0.2,8.1-6.5,15.1-14.7,16.3c-9.3,1.3-18.4-6.3-18.9-15.7
			c-0.5-9.5,6.1-17.2,15.6-18.1c0.2,0,0.3-0.1,0.5-0.2C330.4,18.7,330.9,18.7,331.3,18.7z"/>
		<path fill="#ffffff" d="M429.9,147.7c-2.7,3.1-5.6,5.7-9.1,7.7c-6.4,3.7-13.4,4.9-20.7,4.5c-11.4-0.7-21.4-5-29.7-12.9
			c-7.3-6.9-11.8-15.4-13.8-25.3c-2.6-13.1-1.4-25.7,5.1-37.5c7.5-13.5,19-21.4,34.3-23.6c9-1.3,17.8-0.1,25.8,4.6
			c2.8,1.7,5.3,3.8,7.2,6.4c0.1,0.1,0.2,0.3,0.6,0.6c0-0.7,0-1.1,0-1.5c0-14.7,0-29.4,0-44.1c0-3.4,1.5-5,4.9-5c6.1,0,12.2,0,18.2,0
			c3.4,0,4.8,1.5,4.8,4.8c0,42,0,84,0,126c0,3.4-1.4,4.8-4.8,4.8c-6.1,0-12.2,0-18.4,0c-3,0-4.6-1.5-4.6-4.6
			C429.9,151,429.9,149.4,429.9,147.7z M383.8,110.1c-0.1,0-0.2,0-0.3,0.1c0.5,2.6,0.8,5.4,1.6,7.9c4.6,14.3,21.1,20.5,33.6,12.7
			c8.6-5.3,12.8-15.9,10.5-26.3c-2.9-13-15.3-20.8-28-17.6C391,89.3,383.8,99,383.8,110.1z"/>
		<path fill="#ffffff" d="M628.3,131.3c0.2-0.6,0.4-1,0.5-1.4c5.6-20.8,11.3-41.6,16.9-62.4c0.6-2.2,1.6-3.9,4-4.5c0.5-0.1,1.1-0.1,1.7-0.1
			c7.1,0,14.2,0,21.2,0c3.8,0,5.4,2,4.3,5.6c-1.1,3.8-2.3,7.6-3.5,11.4c-9.6,30.8-19.1,61.6-28.7,92.4c-2.1,6.6-5,12.8-9.7,18
			c-6.1,6.8-13.9,10.5-22.9,11.5c-8.8,1-17.3,0-25.4-3.9c-2.9-1.4-5.6-3.3-8.2-5.3c-2.4-1.8-3-4.6-1.3-7.1c2.5-3.9,5.2-7.8,8-11.5
			c1.6-2.2,4.5-2.4,7.2-0.9c0.9,0.5,1.7,1.2,2.6,1.7c2.9,1.9,6.1,3.2,9.6,3.2c5,0,8.8-2.2,10.9-6.7c2.1-4.5,3.6-9.3,5.4-14.2
			c-0.7,0-1.1,0-1.5,0c-2.6,0-5.2,0-7.8,0c-3.4,0-4.8-1-5.9-4.3c-1.6-4.8-3.2-9.6-4.8-14.4c-7.6-22.8-15.1-45.7-22.7-68.5
			c-0.2-0.6-0.4-1.3-0.5-2c-0.6-3.1,1.1-5.2,4.3-5.2c3.6,0,7.2,0,10.8,0c3.8,0,7.7,0,11.5,0c2.9,0,4.3,1,5.2,3.8
			c0.7,2.2,1.3,4.4,2,6.7c5.5,19,11.1,38,16.6,57C628,130.6,628.1,130.8,628.3,131.3z"/>
		<path fill="#ffffff" d="M542.9,72.7c0-2,0-3.8,0-5.5c0-2.5,1.9-4.4,4.4-4.4c6.3,0,12.6,0,18.9,0c2.6,0,4.2,1.5,4.4,4.1c0,0.3,0,0.6,0,0.8
			c0,28.2,0,56.4,0,84.6c0,0.7,0,1.4-0.2,2c-0.4,1.7-1.9,2.8-3.8,2.8c-6.6,0-13.2,0-19.8,0c-2.3,0-4-1.7-4-4c0-1.8,0-3.6,0-5.4
			c-0.2,0-0.3,0-0.4,0.1c-4.5,6.3-10.8,9.7-18.2,11.2c-15.4,3-29-1.1-40.5-11.7c-9.3-8.6-14-19.5-15.1-32c-1.1-12.2,1.1-23.7,8-34.1
			c8.1-12.1,19.5-19,34-20.7c7.7-0.9,15.2,0,22.3,3.6c3.7,1.9,6.9,4.4,9.3,7.9C542.4,72.1,542.6,72.3,542.9,72.7z M521.5,134.1
			c4.7,0,10.2-2.2,14.5-6.8c6.1-6.5,8.1-14.3,6.2-22.9c-3.6-16.4-22.7-23.7-35.9-13.7c-7.7,5.9-10.4,14-9.1,23.5
			C498.7,125.6,508.4,134.1,521.5,134.1z"/>
		<path fill="#ffffff" d="M168.7,273.7c0.5,4.2,1.9,7.9,4.5,11.1c5.1,6.2,11.8,8.6,19.7,8.2c7.1-0.4,12.9-3.4,17.7-8.7c0.5-0.6,1.1-1.1,1.7-1.5
			c1-0.7,2.2-0.8,3.3-0.1c5.2,3.3,10.3,6.7,15.5,10c2,1.3,2.1,3.9,0.5,6c-3.4,4.4-7.6,8.1-12.5,10.9c-7.2,4.2-15,6.2-23.2,6.8
			c-8.6,0.7-17.1-0.1-25.2-3.3c-16.7-6.6-26.8-18.9-30-36.6c-2.6-14.4,0.2-27.8,8.8-39.8c8-11,18.9-17.4,32.3-19.4
			c11.6-1.7,22.8-0.2,33.1,5.8c13.1,7.6,20.7,19.2,22.9,34.2c0.5,3.8,0.4,7.6,0.5,11.5c0,2.6-2.3,4.7-5,4.7c-7.7,0-15.4,0-23,0
			c-13.3,0-26.6,0-39.9,0C169.8,273.7,169.3,273.7,168.7,273.7z M210.6,256.1c-1.8-9.1-9.4-16.8-20.8-16.7
			c-9.9,0.1-19.7,8.4-20.3,16.7C183.2,256.1,196.9,256.1,210.6,256.1z"/>
		<path fill="#ffffff" d="M150.1,110.2c-0.1-23.8,17-44.6,40.5-49c16.4-3.1,31.3,0.3,44.2,11c11,9.1,16.7,21,17.7,35.3
			c1.4,20.9-11.1,40.8-31.2,48.5c-19,7.3-37,5-53.1-7.6c-11.4-8.9-17.3-21-18.2-35.4C150,112.1,150.1,111.2,150.1,110.2z
			 M224.2,110.2c0.1,0,0.2,0,0.3-0.1c-0.6-2.8-0.9-5.6-1.7-8.3c-4.7-14.1-21.1-20.1-33.4-12.4c-8.6,5.4-12.8,16-10.4,26.4
			c2.8,12.5,14.7,20.1,27.2,17.5C216.8,131.1,224.2,121.6,224.2,110.2z"/>
		<path fill="#ffffff" d="M286.3,316.8c-13.2-0.2-24.6-2.8-35-9.3c-2.8-1.8-5.5-3.7-7.4-6.5c-2.3-3.3-1.8-6.5,1.3-9.1c0.2-0.1,0.3-0.3,0.5-0.4
			c2.7-2.1,5.3-4.1,8-6.2c3.5-2.7,6.2-2.7,9.6,0.2c4.3,3.7,9,6.8,14.5,8.4c5.4,1.6,10.9,2,16.3-0.1c2-0.8,3.7-2.1,4.6-4.1
			c1.1-2.4,0.5-5-1.5-6.7c-1.9-1.5-4.1-2.3-6.4-2.8c-7.3-1.6-14.7-3.2-22-4.8c-5.5-1.2-10.6-3.4-14.9-7c-5.9-4.9-8.8-11.2-9.2-18.8
			c-0.5-11.1,4.3-19.5,13.4-25.5c5.8-3.9,12.4-5.9,19.3-6.6c10.9-1.2,21.6-0.1,31.9,3.8c5,1.9,9.6,4.3,13.6,7.9c2.6,2.3,3,5,0.8,7.7
			c-2.6,3.2-5.5,6.4-8.3,9.5c-1.5,1.7-3.6,2.1-5.7,1.4c-1.3-0.4-2.5-1.1-3.6-1.8c-5.2-3.3-10.6-5.9-16.7-6.8
			c-4.2-0.6-8.4-0.6-12.3,1.3c-2.2,1.1-4,2.6-4,5.3c0,2.7,1.7,4.3,4,5.5c3.2,1.6,6.8,2.1,10.2,2.8c6.3,1.3,12.6,2.5,18.8,4.1
			c5.6,1.5,10.7,4.1,14.9,8.3c5.7,5.7,7.6,12.8,7,20.6c-0.8,9.7-5.8,16.9-13.8,22.1c-6.4,4.2-13.7,6.3-21.3,7.1
			C290.2,316.6,287.7,316.7,286.3,316.8z"/>
		<path fill="#ffffff" d="M348.3,219.7c0-0.6,0-1.1,0-1.5c0-7.7,0-15.4,0-23.1c0-3,1.6-4.6,4.6-4.6c6.4,0,12.7,0,19.1,0c2.8,0,4.5,1.7,4.5,4.5
			c0,7.8,0,15.6,0,23.4c0,0.4,0,0.9,0,1.4c0.6,0,1.1,0,1.5,0c8.2,0,16.4,0,24.6,0c3.1,0,4.9,1.7,4.9,4.9c0,4.6-0.1,9.1,0,13.7
			c0.1,2.8-2.3,5-5.1,5c-8.1-0.1-16.2,0-24.3,0c-0.5,0-1,0-1.6,0c0,0.5,0,0.9,0,1.3c0,11.6,0,23.2,0,34.8c0,1.2,0.1,2.4,0.4,3.6
			c1.2,5.5,5.8,8.4,11.5,7c2.1-0.5,4.1-1.6,6.2-2.4c0.8-0.3,1.7-0.8,2.5-1.1c2.3-0.7,4.2,0,5.5,2.1c2.2,3.5,4.5,7.1,6.7,10.7
			c1.6,2.6,1.3,5.3-0.9,7.4c-4.4,4.3-9.8,6.9-15.8,8.3c-8.4,2-16.9,2.1-25.2-0.8c-12-4.2-19-14.1-19-26.8c0-14.1,0-28.3,0-42.4
			c0-0.5,0-0.9,0-1.6c-0.5,0-1,0-1.4,0c-3.5,0-7,0-10.6,0c-2.8,0-4.6-1.8-4.6-4.6c0-4.8,0-9.6,0-14.4c0-2.9,1.6-4.5,4.5-4.5
			c3.5,0,7,0,10.6,0C347.3,219.7,347.8,219.7,348.3,219.7z"/>
		<path fill="#ffffff" d="M263.6,81c0-18.2,0-36.4,0-54.5c0-2.6,1.1-4.2,3.2-4.7c0.7-0.1,1.3-0.1,2-0.1c5.8,0,11.6,0,17.4,0c3.9,0,5.4,1.5,5.4,5.3
			c0,33.6,0,67.1,0,100.7c0,2.6,0.7,4.8,3.3,5.8c0.9,0.4,2,0.5,3,0.5c1.8,0.1,3.5,0,5.3,0c2.7,0,4.2,1.2,4.2,3.8
			c0.1,4.9,0.1,9.9,0,14.9c-0.1,2.8-1.9,4.5-4.6,4.5c-6.8,0-13.6,0.2-20.4-0.4c-7-0.6-12.7-3.9-16.1-10.4c-2.1-4-2.7-8.4-2.7-12.9
			C263.6,116,263.6,98.5,263.6,81z"/>
		<path fill="#ffffff" d="M462.8,266.7c-3.1-0.1-6.6-1.9-9.1-5.5c-6.3-9.3-12.6-18.6-18.8-27.9c-2.1-3.2-0.9-7,2.6-8.4c3.4-1.3,6.7-1,9.9,0.5
			c6.2,3,12.4,6,18.5,9.1c1.3,0.7,2.3,0.6,3.5-0.2c12.3-8.3,24.5-16.7,36.9-24.9c8.4-5.6,17.7-8.4,27.7-8.8
			c5.1-0.2,10.1,0.7,15.1,1.8c1.9,0.4,3.1,1.8,3.5,3.7c0.4,2-0.3,3.6-2,4.8c-21.5,14.5-43,29.1-64.5,43.6c-4.9,3.3-9.9,6.7-14.8,10
			C469,266,466.7,266.7,462.8,266.7z"/>
		<path fill="#ffffff" d="M493.2,314c-18.1,0-36.2,0-54.3,0c-3.2,0-4.8-1.6-4.8-4.8c0-5.5,0-11,0-16.4c0-3.1,1.7-4.8,4.8-4.8c36.2,0,72.4,0,108.6,0
			c3.2,0,4.9,1.6,4.9,4.9c0,5.4,0,10.9,0,16.3c0,3.2-1.6,4.8-4.8,4.8C529.4,314,511.3,314,493.2,314z"/>
		<path fill="#ffffff" d="M316.5,110.1c0-14,0-28.1,0-42.1c0-3,1.8-5.2,5.2-5.2c6.1,0.2,12.2,0,18.3,0c2.7,0,4.3,1.4,4.5,4.1c0,0.3,0,0.6,0,1
			c0,28.1,0,56.2,0,84.3c0,0.6,0,1.2-0.2,1.8c-0.4,2-1.9,3.2-3.9,3.3c-6.6,0-13.2,0-19.8,0c-2.3,0-4-1.8-4.2-4.1c0-0.8,0-1.5,0-2.3
			C316.5,137.2,316.5,123.6,316.5,110.1z"/>
	</g>
</g>
</svg>
